<?xml version="1.0" encoding="utf-8"?>
<!-- Generator: Adobe Illustrator 26.0.1, SVG Export Plug-In . SVG Version: 6.00 Build 0)  -->
<svg version="1.1" id="Слой_1" xmlns="http://www.w3.org/2000/svg" xmlns:xlink="http://www.w3.org/1999/xlink" x="0px" y="0px"
	 viewBox="0 0 500 500" style="enable-background:new 0 0 500 500;" xml:space="preserve">
<style type="text/css">
	.st0{fill:#F2AB43;}
</style>
<path class="st0" d="M109.4,469.8c158.5-75.4,256.9-12.3,319.9,26c3.9,2.4,10.5-0.6,4.8-7.2c-21-25.4-89.7-86.8-179.5-86.8
	c-89.8,0-143.2,49-149.9,57.6C98,467.9,102.7,472.6,109.4,469.8L109.4,469.8z M64.9,494.4c4.3,5.5,25.9,6.6,39.5,4.9
	c13.6-1.6,34.1-10,32.3-15c-0.9-1.9-2.8-1-12.1-0.2c-9.4,0.9-35.7,4.3-41.2-2.9c-5.5-7.2,8.4-41.6,10.9-47.1c2.5-5.5-0.9-7-5.5-3.3
	c-4.5,3.7-12.8,13.2-18.3,26.8C65,471.2,61.7,490.1,64.9,494.4L64.9,494.4z"/>
<path d="M111.8,380.2l3-27.9c5.7-2.7,10.9-5.1,15.7-7.2c4.8-2.2,10.6-4.6,17.2-7.2V58.9l-40.4-9c-0.7-2.7-1.2-5.6-1.5-8.7
	c-0.3-3.2-0.5-6.2-0.5-9.2c0-9,8.3-15.6,25-20c15-3.7,29.4-6.6,43.4-8.7c14-2.2,26.8-3.2,38.4-3.2l3,34.9C239,11.6,267.1,0,299.4,0
	c63.5,0,95.3,41.1,95.3,123.3c0,47.9-12,85.2-35.9,111.8c-24,26.6-57.6,39.9-100.8,39.9c-3.7,0-8.5-0.3-14.5-0.7
	c-6-0.5-12.2-1.1-18.5-1.7v63.9l27.9,6.5c10,2.3,15,7.2,15,14.5c0,2-0.3,4.6-1,7.7c-0.7,3.2-1.8,8.2-3.5,15.2H111.8z M225,218.6
	c9.6,3.3,20.3,5,31.9,5c20.6,0,35.4-6.8,44.4-20.5c9-13.6,13.5-36.3,13.5-67.9c0-51.9-15.6-77.8-46.9-77.8c-8.7,0-16.3,1.5-23,4.5
	c-6.7,3-13.3,7.8-20,14.5V218.6z"/>
</svg>
